<svg version="1.1" xmlns="http://www.w3.org/2000/svg" xmlns:xlink="http://www.w3.org/1999/xlink" width="48" height="48"><defs><linearGradient x1="13.27732" y1="13.27732" x2="69.37092" y2="69.37092" gradientUnits="userSpaceOnUse" id="color-1"><stop offset="0.13" stop-color="#000000" stop-opacity="0.68"></stop><stop offset="1" stop-color="#000000" stop-opacity="0"></stop></linearGradient><filter id="dropshadow-base"><feColorMatrix type="matrix" values="0 0 0 0 0  0 0 0 0 0  0 0 0 0 0  0 0 0 .8 0"></feColorMatrix> <feOffset dx="0" dy="1"></feOffset> <feGaussianBlur stdDeviation="1"></feGaussianBlur> <feComposite in="SourceGraphic"></feComposite></filter><filter id="dropshadow-banner" x="-10%" y="-10%" width="120%" height="130%"><feColorMatrix type="matrix" values="0 0 0 0 0  0 0 0 0 0  0 0 0 0 0  0 0 0 .4 0"></feColorMatrix> <feOffset dx="0" dy="1"></feOffset> <feGaussianBlur stdDeviation="0.5"></feGaussianBlur> <feComposite in="SourceGraphic"></feComposite></filter></defs><g fill="none" fill-rule="nonzero" stroke="none" stroke-width="none" stroke-linecap="butt" stroke-linejoin="miter" stroke-miterlimit="10" stroke-dasharray="" stroke-dashoffset="0" font-family="none" font-weight="none" font-size="none" text-anchor="none" style="mix-blend-mode: normal"><path d="M2,24c0,-12.15026 9.84974,-22 22,-22c12.15026,0 22,9.84974 22,22c0,12.15026 -9.84974,22 -22,22c-12.15026,0 -22,-9.84974 -22,-22z" id="base 1 5" fill="#448aff" stroke-width="1"></path><path d="M13.97503,34.02497c-0.43114,-0.43114 -0.69772,-1.02684 -0.69772,-1.6851v-16.67973c0,-1.31651 1.06631,-2.38282 2.38282,-2.38282h16.67973c0.65825,0 1.25396,0.26658 1.6851,0.69772l11.89654,11.89654c-0.89781,10.6573 -9.39264,19.15212 -20.04993,20.04993z" fill="url(#color-1)" stroke-width="1"></path><path d="M34.72268,32.33986v-16.67973c0,-1.31651 -1.06631,-2.38282 -2.38282,-2.38282h-16.67973c-1.31651,0 -2.38282,1.06631 -2.38282,2.38282v16.67973c0,1.31651 1.06631,2.38282 2.38282,2.38282h16.67973c1.31651,0 2.38282,-1.06631 2.38282,-2.38282zM19.83007,25.78711l2.97852,3.58018l4.16993,-5.3673l5.36134,7.14846h-16.67973z" fill="none" stroke-width="0"></path><path d="M32.33986,34.72268h-16.67973c-1.31651,0 -2.38282,-1.06631 -2.38282,-2.38282v-16.67973c0,-1.31651 1.06631,-2.38282 2.38282,-2.38282h16.67973c1.31651,0 2.38282,1.06631 2.38282,2.38282v16.67973c0,1.31651 -1.06631,2.38282 -2.38282,2.38282zM15.66014,31.14846h16.67973l-5.36134,-7.14846l-4.16993,5.3673l-2.97852,-3.58018z" fill="#ffffff" stroke-width="0"></path><path d="M2,24c0,-12.15026 9.84974,-22 22,-22c12.15026,0 22,9.84974 22,22c0,12.15026 -9.84974,22 -22,22c-12.15026,0 -22,-9.84974 -22,-22z" id="base 1 1 1" fill="none" stroke-width="1"></path><g fill="#000000" stroke-width="1" font-family="Roboto, sans-serif" font-weight="400" font-size="14" text-anchor="start"></g><rect x="2" y="2" width="44" height="22" fill="none" stroke-width="1"></rect><path d="M2,24v-22h44v22z" fill="none" stroke-width="1"></path><path d="M2,24v-22h44v22z" fill="none" stroke-width="1"></path><path d="M2,24v-22h44v22z" fill="none" stroke-width="1"></path><path d="M2,24v-22h44v22z" fill="none" stroke-width="1"></path></g></svg>